<?xml version="1.0" encoding="utf-8"?>
<!-- Generator: Adobe Illustrator 16.0.0, SVG Export Plug-In . SVG Version: 6.00 Build 0)  -->
<!DOCTYPE svg PUBLIC "-//W3C//DTD SVG 1.1//EN" "http://www.w3.org/Graphics/SVG/1.1/DTD/svg11.dtd">
<svg version="1.1" id="Layer_1" xmlns="http://www.w3.org/2000/svg" xmlns:xlink="http://www.w3.org/1999/xlink" x="0px" y="0px"
	 width="39.409px" height="83.876px" viewBox="0 0 39.409 83.876" enable-background="new 0 0 39.409 83.876" xml:space="preserve">
<g>
	<path fill="#42DBAC" d="M-0.001,47.895c0-1.889,1.533-3.419,3.422-3.419h32.568c1.889,0,3.42,1.53,3.42,3.419v32.562
		c0,1.894-1.531,3.419-3.42,3.419H3.42c-1.889,0-3.422-1.525-3.422-3.419V47.895L-0.001,47.895z"/>
	<path d="M18.305,58.532H22v-1.678v-1.642V54.94c0-1.58,0.039-4.023,1.189-5.534c1.211-1.602,2.873-2.689,5.732-2.689
		c4.658,0,6.621,0.663,6.621,0.663l-0.922,5.475c0,0-1.541-0.445-2.977-0.445s-2.723,0.514-2.723,1.949v0.582v1.914v1.678h5.889
		l-0.41,5.342h-5.479v18.565H22V63.874h-3.695V58.532L18.305,58.532z"/>
</g>
<g>
	<path d="M-0.001,3.419C-0.001,1.53,1.532,0,3.42,0h32.568c1.889,0,3.42,1.53,3.42,3.419v32.562c0,1.894-1.531,3.419-3.42,3.419
		H3.42c-1.889,0-3.422-1.525-3.422-3.419V3.419L-0.001,3.419z"/>
	<path fill="#FFFFFF" d="M18.305,14.057H22v-1.678v-1.642v-0.272c0-1.58,0.039-4.023,1.189-5.534
		c1.211-1.602,2.873-2.689,5.732-2.689c4.658,0,6.621,0.663,6.621,0.663l-0.922,5.475c0,0-1.541-0.445-2.977-0.445
		s-2.723,0.514-2.723,1.949v0.582v1.914v1.678h5.889l-0.41,5.342h-5.479v18.565H22V19.398h-3.695V14.057L18.305,14.057z"/>
</g>
</svg>
