<?xml version="1.0" encoding="utf-8"?>
<!-- Generator: Adobe Illustrator 16.0.0, SVG Export Plug-In . SVG Version: 6.00 Build 0)  -->
<!DOCTYPE svg PUBLIC "-//W3C//DTD SVG 1.1//EN" "http://www.w3.org/Graphics/SVG/1.1/DTD/svg11.dtd">
<svg version="1.1" id="Layer_1" xmlns="http://www.w3.org/2000/svg" xmlns:xlink="http://www.w3.org/1999/xlink" x="0px" y="0px"
	 width="39.409px" height="83.876px" viewBox="0 0 39.409 83.876" enable-background="new 0 0 39.409 83.876" xml:space="preserve">
<g>
	<g>
		<path d="M39.409,35.891c0,2.201-1.777,3.985-3.973,3.985H3.973C1.778,39.876,0,38.092,0,35.891V3.988C0,1.787,1.778,0,3.973,0
			h31.463c2.195,0,3.973,1.787,3.973,3.988V35.891z"/>
		<g>
			<path fill="#FFFFFF" d="M12.819,9.751c0,1.466-1.08,2.652-2.859,2.652c-1.674,0-2.755-1.187-2.755-2.652
				c0-1.498,1.116-2.651,2.825-2.651C11.739,7.1,12.785,8.253,12.819,9.751z M7.344,31.553V14.495h5.301v17.058H7.344L7.344,31.553z
				"/>
			<path fill="#FFFFFF" d="M15.819,19.937c0-2.128-0.07-3.905-0.139-5.441h4.604l0.245,2.371h0.105
				c0.697-1.116,2.406-2.754,5.267-2.754c3.488,0,6.104,2.336,6.104,7.359v10.081h-5.303v-9.454c0-2.197-0.768-3.696-2.686-3.696
				c-1.465,0-2.337,1.012-2.721,1.988c-0.139,0.348-0.175,0.836-0.175,1.326v9.836h-5.302V19.937z"/>
		</g>
	</g>
	<g>
		<path fill="#42DBAC" d="M39.409,79.891c0,2.201-1.777,3.985-3.973,3.985H3.973C1.778,83.876,0,82.092,0,79.891V47.988
			C0,45.787,1.778,44,3.973,44h31.463c2.195,0,3.973,1.787,3.973,3.988V79.891z"/>
		<g>
			<path d="M12.819,53.751c0,1.466-1.08,2.652-2.859,2.652c-1.674,0-2.755-1.187-2.755-2.652c0-1.498,1.116-2.651,2.825-2.651
				C11.739,51.1,12.785,52.253,12.819,53.751z M7.344,75.553V58.495h5.301v17.058H7.344L7.344,75.553z"/>
			<path d="M15.819,63.937c0-2.128-0.07-3.905-0.139-5.441h4.604l0.245,2.371h0.105c0.697-1.116,2.406-2.754,5.267-2.754
				c3.488,0,6.104,2.336,6.104,7.359v10.081h-5.303v-9.454c0-2.197-0.768-3.696-2.686-3.696c-1.465,0-2.337,1.012-2.721,1.988
				c-0.139,0.348-0.175,0.836-0.175,1.326v9.836h-5.302V63.937z"/>
		</g>
	</g>
</g>
</svg>
