<?xml version="1.0" encoding="utf-8"?>
<!-- Generator: Adobe Illustrator 16.0.0, SVG Export Plug-In . SVG Version: 6.00 Build 0)  -->
<!DOCTYPE svg PUBLIC "-//W3C//DTD SVG 1.1//EN" "http://www.w3.org/Graphics/SVG/1.1/DTD/svg11.dtd">
<svg version="1.1" id="Layer_1" xmlns="http://www.w3.org/2000/svg" xmlns:xlink="http://www.w3.org/1999/xlink" x="0px" y="0px"
	 width="67.472px" height="60.273px" viewBox="0 0 67.472 60.273" enable-background="new 0 0 67.472 60.273" xml:space="preserve">
<g>
	<path fill="#231F20" d="M2.833,5.608C1.271,5.608,0,4.336,0,2.775C0,1.271,1.271,0,2.833,0c1.503,0,2.775,1.271,2.775,2.775
		C5.608,4.336,4.337,5.608,2.833,5.608z"/>
	<rect x="0.926" y="10.319" fill="#231F20" width="3.758" height="49.91"/>
	<g>
		<g>
			<path fill="#231F20" d="M11.801,16.686c-1.562,0-2.833-1.272-2.833-2.832c0-1.505,1.271-2.777,2.833-2.777
				c1.503,0,2.775,1.271,2.775,2.777C14.577,15.413,13.304,16.686,11.801,16.686z"/>
			<rect x="9.893" y="21.396" fill="#231F20" width="3.759" height="38.833"/>
			<path fill="#231F20" d="M22.613,60.229h-3.757V5.059h3.757V60.229z"/>
		</g>
	</g>
	<g>
		<g>
			<path fill="#231F20" d="M31.601,60.229h-3.757V5.059h3.757V60.229z"/>
			<path fill="#231F20" d="M38.714,25.859c-1.562,0-2.833-1.273-2.833-2.833c0-1.503,1.271-2.774,2.833-2.774
				c1.503,0,2.775,1.271,2.775,2.774C41.489,24.586,40.217,25.859,38.714,25.859z"/>
			<rect x="36.805" y="30.569" fill="#231F20" width="3.759" height="29.661"/>
		</g>
	</g>
	<path d="M49.525,32.522h0.115c0.374-0.923,1.711-2.373,3.966-2.373c1.813,0,2.913,0.739,3.896,2.994
		c1.561-2.196,2.4-2.994,5.021-2.994c4.967,0,4.948,4.394,4.948,8.789v21.335h-3.759V39.053c0-2.833,0.244-5.839-2.821-5.839
		c-3.066,0-2.396,5.029-2.396,8.787v18.272h-3.758V39.11c0-2.773,0.359-5.896-2.705-5.896c-2.97,0-2.508,5.623-2.508,9.382v17.636
		h-3.758V30.569h3.758V32.522z"/>
</g>
</svg>
