<?xml version="1.0" encoding="utf-8"?>
<!-- Generator: Adobe Illustrator 16.0.0, SVG Export Plug-In . SVG Version: 6.00 Build 0)  -->
<!DOCTYPE svg PUBLIC "-//W3C//DTD SVG 1.1//EN" "http://www.w3.org/Graphics/SVG/1.1/DTD/svg11.dtd">
<svg version="1.1" id="Layer_1" xmlns="http://www.w3.org/2000/svg" xmlns:xlink="http://www.w3.org/1999/xlink" x="0px" y="0px"
	 width="139.414px" height="83.877px" viewBox="-138.502 0 139.414 83.877" enable-background="new -138.502 0 139.414 83.877"
	 xml:space="preserve">
<g>
	<g>
		<g>
			<path d="M-38.499,3.42c0-1.888,1.532-3.42,3.419-3.42h32.57c1.888,0,3.419,1.532,3.419,3.42v32.562
				c0,1.896-1.531,3.421-3.419,3.421h-32.57c-1.888,0-3.42-1.525-3.42-3.421L-38.499,3.42L-38.499,3.42z"/>
			<path fill="#FFFFFF" d="M-26.098,4.398c2.223,0,4.039,1.818,4.039,4.04v3.954h11.017c2.222,0,4.039,1.818,4.039,4.042
				c0,2.232-1.817,4.04-4.039,4.04h-11.017v5.824c0,0.47,0.139,0.733,0.574,0.733h10.44c2.223,0,4.041,1.809,4.041,4.04
				c0,2.224-1.818,4.041-4.041,4.041h-9.994c-0.105,0-0.203-0.011-0.299-0.011c-5.932-0.159-8.812-3.912-8.812-9.058
				c0.01-0.053,0.01-0.105,0.01-0.17V8.438C-30.139,6.217-28.331,4.398-26.098,4.398L-26.098,4.398z"/>
		</g>
		<g>
			<path fill="#42DBAC" d="M-38.499,47.894c0-1.888,1.532-3.42,3.42-3.42h32.57c1.889,0,3.42,1.532,3.42,3.42v32.562
				c0,1.896-1.531,3.422-3.42,3.422H-35.08c-1.888,0-3.42-1.525-3.42-3.422L-38.499,47.894L-38.499,47.894z"/>
			<path d="M-26.098,48.872c2.223,0,4.039,1.818,4.039,4.041v3.953h11.017c2.222,0,4.039,1.818,4.039,4.043
				c0,2.231-1.817,4.039-4.039,4.039h-11.017v5.824c0,0.471,0.139,0.732,0.574,0.732h10.44c2.223,0,4.041,1.81,4.041,4.041
				c0,2.224-1.818,4.041-4.041,4.041h-9.994c-0.105,0-0.203-0.012-0.299-0.012c-5.932-0.158-8.812-3.912-8.812-9.058
				c0.01-0.054,0.01-0.104,0.01-0.17V52.913C-30.139,50.69-28.331,48.872-26.098,48.872L-26.098,48.872z"/>
		</g>
	</g>
	<g>
		<g>
			<path d="M-49.091,35.891c0,2.201-1.777,3.985-3.974,3.985h-31.463c-2.195,0-3.974-1.784-3.974-3.985V3.988
				c0-2.201,1.778-3.988,3.974-3.988h31.463c2.194,0,3.974,1.787,3.974,3.988V35.891z"/>
			<g>
				<path fill="#FFFFFF" d="M-75.682,9.751c0,1.466-1.08,2.652-2.858,2.652c-1.674,0-2.756-1.187-2.756-2.652
					c0-1.498,1.116-2.651,2.825-2.651S-75.716,8.253-75.682,9.751z M-81.156,31.553V14.495h5.301v17.058H-81.156L-81.156,31.553z"/>
				<path fill="#FFFFFF" d="M-72.682,19.937c0-2.128-0.069-3.905-0.139-5.441h4.604l0.244,2.371h0.105
					c0.697-1.116,2.406-2.754,5.267-2.754c3.488,0,6.104,2.336,6.104,7.359v10.081h-5.303v-9.454c0-2.197-0.769-3.696-2.687-3.696
					c-1.466,0-2.337,1.012-2.722,1.988c-0.139,0.348-0.174,0.836-0.174,1.326v9.836h-5.303L-72.682,19.937L-72.682,19.937z"/>
			</g>
		</g>
		<g>
			<path fill="#42DBAC" d="M-49.091,79.891c0,2.201-1.777,3.984-3.974,3.984h-31.463c-2.195,0-3.974-1.783-3.974-3.984V47.988
				c0-2.2,1.778-3.987,3.974-3.987h31.463c2.194,0,3.974,1.787,3.974,3.987V79.891z"/>
			<g>
				<path d="M-75.682,53.75c0,1.467-1.08,2.652-2.858,2.652c-1.674,0-2.756-1.188-2.756-2.652c0-1.498,1.116-2.65,2.825-2.65
					S-75.716,52.252-75.682,53.75z M-81.156,75.553V58.495h5.301v17.059H-81.156L-81.156,75.553z"/>
				<path d="M-72.682,63.937c0-2.128-0.069-3.905-0.139-5.44h4.604l0.244,2.371h0.105c0.697-1.117,2.406-2.755,5.267-2.755
					c3.488,0,6.104,2.337,6.104,7.359v10.081h-5.303v-9.454c0-2.197-0.769-3.696-2.687-3.696c-1.466,0-2.337,1.012-2.722,1.988
					c-0.139,0.348-0.174,0.836-0.174,1.326v9.836h-5.303L-72.682,63.937L-72.682,63.937z"/>
			</g>
		</g>
	</g>
	<g>
		<g>
			<path fill="#42DBAC" d="M-138.5,47.895c0-1.889,1.533-3.419,3.422-3.419h32.567c1.89,0,3.421,1.53,3.421,3.419v32.562
				c0,1.894-1.531,3.418-3.421,3.418h-32.569c-1.889,0-3.422-1.524-3.422-3.418V47.895H-138.5z"/>
			<path d="M-120.195,58.532h3.694v-1.678v-1.643V54.94c0-1.58,0.039-4.023,1.189-5.533c1.211-1.603,2.873-2.689,5.732-2.689
				c4.658,0,6.621,0.662,6.621,0.662l-0.922,5.476c0,0-1.541-0.444-2.978-0.444s-2.724,0.514-2.724,1.948v0.582v1.914v1.679h5.89
				l-0.41,5.342h-5.479V82.44h-6.92V63.874h-3.694V58.532L-120.195,58.532z"/>
		</g>
		<g>
			<path d="M-138.5,3.419c0-1.889,1.533-3.419,3.42-3.419h32.568c1.889,0,3.42,1.53,3.42,3.419v32.562
				c0,1.894-1.531,3.419-3.42,3.419h-32.568c-1.889,0-3.422-1.525-3.422-3.419V3.419H-138.5z"/>
			<path fill="#FFFFFF" d="M-120.195,14.057h3.694v-1.678v-1.642v-0.272c0-1.58,0.039-4.023,1.189-5.534
				c1.211-1.602,2.873-2.689,5.732-2.689c4.658,0,6.621,0.663,6.621,0.663l-0.922,5.475c0,0-1.541-0.445-2.978-0.445
				s-2.724,0.514-2.724,1.949v0.582v1.914v1.678h5.89l-0.41,5.342h-5.479v18.565h-6.92V19.398h-3.694V14.057L-120.195,14.057z"/>
		</g>
	</g>
</g>
</svg>
