<?xml version="1.0" encoding="utf-8"?>
<!-- Generator: Adobe Illustrator 16.0.0, SVG Export Plug-In . SVG Version: 6.00 Build 0)  -->
<!DOCTYPE svg PUBLIC "-//W3C//DTD SVG 1.1//EN" "http://www.w3.org/Graphics/SVG/1.1/DTD/svg11.dtd">
<svg version="1.1" id="Layer_1" xmlns="http://www.w3.org/2000/svg" xmlns:xlink="http://www.w3.org/1999/xlink" x="0px" y="0px"
	 width="39.409px" height="83.876px" viewBox="0 0 39.409 83.876" enable-background="new 0 0 39.409 83.876" xml:space="preserve">
<g>
	<path d="M0,3.42C0,1.532,1.532,0,3.419,0h32.57c1.888,0,3.419,1.532,3.419,3.42v32.562c0,1.896-1.531,3.421-3.419,3.421H3.419
		c-1.888,0-3.42-1.525-3.42-3.421V3.42L0,3.42z"/>
	<path fill="#FFFFFF" d="M12.401,4.398c2.223,0,4.039,1.818,4.039,4.04v3.954h11.016c2.222,0,4.04,1.818,4.04,4.042
		c0,2.232-1.818,4.04-4.04,4.04H16.44v5.824c0,0.47,0.139,0.733,0.574,0.733h10.441c2.222,0,4.04,1.809,4.04,4.04
		c0,2.224-1.818,4.041-4.04,4.041h-9.994c-0.105,0-0.203-0.011-0.299-0.011c-5.932-0.159-8.812-3.912-8.812-9.058
		c0.01-0.053,0.01-0.105,0.01-0.17V8.438C8.36,6.217,10.168,4.398,12.401,4.398L12.401,4.398z"/>
</g>
<g>
	<path fill="#42DBAC" d="M0,47.894c0-1.888,1.532-3.42,3.42-3.42h32.57c1.888,0,3.419,1.532,3.419,3.42v32.562
		c0,1.896-1.531,3.421-3.419,3.421H3.419c-1.888,0-3.42-1.525-3.42-3.421V47.894L0,47.894z"/>
	<path d="M12.401,48.872c2.223,0,4.039,1.818,4.039,4.04v3.954h11.016c2.222,0,4.04,1.818,4.04,4.042c0,2.232-1.818,4.04-4.04,4.04
		H16.44v5.824c0,0.47,0.139,0.733,0.574,0.733h10.441c2.222,0,4.04,1.809,4.04,4.04c0,2.224-1.818,4.041-4.04,4.041h-9.994
		c-0.105,0-0.203-0.011-0.299-0.011c-5.932-0.159-8.812-3.912-8.812-9.058c0.01-0.053,0.01-0.105,0.01-0.17V52.912
		C8.36,50.69,10.168,48.872,12.401,48.872L12.401,48.872z"/>
</g>
</svg>
